<svg width="53" height="47" viewBox="0 0 53 47" fill="none" xmlns="http://www.w3.org/2000/svg">
<mask id="mask0_52_111" style="mask-type:alpha" maskUnits="userSpaceOnUse" x="0" y="0" width="53" height="47">
<rect width="53" height="47" fill="#D9D9D9"/>
</mask>
<g mask="url(#mask0_52_111)">
<path d="M19.875 39.1667L16.7833 36.425L20.6479 32.9C15.9368 32.3452 12.0538 31.2028 8.99896 29.473C5.94409 27.7431 4.41666 25.7521 4.41666 23.5C4.41666 20.791 6.54219 18.4818 10.7932 16.5724C15.0443 14.6631 20.2799 13.7084 26.5 13.7084C32.7201 13.7084 37.9557 14.6631 42.2068 16.5724C46.4578 18.4818 48.5833 20.791 48.5833 23.5C48.5833 25.5237 47.3595 27.3351 44.912 28.9344C42.4644 30.5337 39.2715 31.725 35.3333 32.5084V28.4938C38.1674 27.841 40.3481 27.0332 41.8755 26.0704C43.403 25.1075 44.1667 24.2507 44.1667 23.5C44.1667 22.4556 42.5932 21.2153 39.4464 19.7792C36.2995 18.3431 31.984 17.625 26.5 17.625C21.016 17.625 16.7005 18.3431 13.5536 19.7792C10.4068 21.2153 8.83333 22.4556 8.83333 23.5C8.83333 24.2834 9.77187 25.2217 11.649 26.3151C13.526 27.4085 16.1944 28.2327 19.6542 28.7875L16.7833 26.2417L19.875 23.5L28.7083 31.3334L19.875 39.1667Z" fill="#DAEDFF"/>
</g>
</svg>
